<svg width="1200" height="400" viewBox="0 0 1200 400" xmlns="http://www.w3.org/2000/svg">
  <rect width="1200" height="400" fill="none"></rect>
  <g stroke="#5ee3ff" stroke-opacity="0.35" fill="none">
    <rect x="80" y="60" width="180" height="110" rx="8"></rect>
    <rect x="320" y="60" width="180" height="110" rx="8"></rect>
    <rect x="560" y="60" width="180" height="110" rx="8"></rect>
    <rect x="800" y="60" width="180" height="110" rx="8"></rect>
    <rect x="200" y="220" width="180" height="110" rx="8"></rect>
    <rect x="440" y="220" width="180" height="110" rx="8"></rect>
    <rect x="680" y="220" width="180" height="110" rx="8"></rect>
  </g>
  <g stroke="#8e7bff" stroke-opacity="0.35">
    <path d="M260 115 C 300 115, 300 275, 380 275"></path>
    <path d="M500 115 C 540 115, 540 275, 620 275"></path>
    <path d="M740 115 C 780 115, 780 275, 860 275"></path>
  </g>
</svg>